<svg width="680" height="159" viewBox="0 0 680 159" fill="none" xmlns="http://www.w3.org/2000/svg">
<path d="M97.25 126H79.375V62C79.375 60.75 79.125 59.5833 78.625 58.5C78.1667 57.4167 77.5208 56.4792 76.6875 55.6875C75.8958 54.8542 74.9583 54.2083 73.875 53.75C72.7917 53.2917 71.625 53.0625 70.375 53.0625C69.125 53.0625 67.9583 53.2917 66.875 53.75C65.7917 54.2083 64.8333 54.8542 64 55.6875C63.2083 56.4792 62.5833 57.4167 62.125 58.5C61.6667 59.5833 61.4375 60.75 61.4375 62V126H43.5V62C43.5 60.75 43.2708 59.5833 42.8125 58.5C42.3542 57.4167 41.7083 56.4792 40.875 55.6875C40.0833 54.8542 39.1458 54.2083 38.0625 53.75C36.9792 53.2917 35.8125 53.0625 34.5625 53.0625C33.3125 53.0625 32.1458 53.2917 31.0625 53.75C29.9792 54.2083 29.0208 54.8542 28.1875 55.6875C27.3958 56.4792 26.7708 57.4167 26.3125 58.5C25.8542 59.5833 25.625 60.75 25.625 62V126H7.6875V62C7.6875 58.2917 8.375 54.8125 9.75 51.5625C11.1667 48.2708 13.0833 45.4167 15.5 43C17.9583 40.5417 20.8125 38.625 24.0625 37.25C27.3542 35.8333 30.8542 35.125 34.5625 35.125C37.8958 35.125 41.1042 35.7292 44.1875 36.9375C47.2708 38.1042 50.0417 39.8125 52.5 42.0625C54.9583 39.8125 57.7083 38.1042 60.75 36.9375C63.8333 35.7292 67.0417 35.125 70.375 35.125C74.0833 35.125 77.5625 35.8333 80.8125 37.25C84.1042 38.625 86.9583 40.5417 89.375 43C91.8333 45.4167 93.75 48.2708 95.125 51.5625C96.5417 54.8125 97.25 58.2917 97.25 62V126ZM202.25 126H184.375V62C184.375 60.75 184.125 59.5833 183.625 58.5C183.167 57.4167 182.521 56.4792 181.688 55.6875C180.896 54.8542 179.958 54.2083 178.875 53.75C177.792 53.2917 176.625 53.0625 175.375 53.0625C174.125 53.0625 172.958 53.2917 171.875 53.75C170.792 54.2083 169.833 54.8542 169 55.6875C168.208 56.4792 167.583 57.4167 167.125 58.5C166.667 59.5833 166.438 60.75 166.438 62V126H148.5V62C148.5 60.75 148.271 59.5833 147.812 58.5C147.354 57.4167 146.708 56.4792 145.875 55.6875C145.083 54.8542 144.146 54.2083 143.062 53.75C141.979 53.2917 140.812 53.0625 139.562 53.0625C138.312 53.0625 137.146 53.2917 136.062 53.75C134.979 54.2083 134.021 54.8542 133.188 55.6875C132.396 56.4792 131.771 57.4167 131.312 58.5C130.854 59.5833 130.625 60.75 130.625 62V126H112.688V62C112.688 58.2917 113.375 54.8125 114.75 51.5625C116.167 48.2708 118.083 45.4167 120.5 43C122.958 40.5417 125.812 38.625 129.062 37.25C132.354 35.8333 135.854 35.125 139.562 35.125C142.896 35.125 146.104 35.7292 149.188 36.9375C152.271 38.1042 155.042 39.8125 157.5 42.0625C159.958 39.8125 162.708 38.1042 165.75 36.9375C168.833 35.7292 172.042 35.125 175.375 35.125C179.083 35.125 182.562 35.8333 185.812 37.25C189.104 38.625 191.958 40.5417 194.375 43C196.833 45.4167 198.75 48.2708 200.125 51.5625C201.542 54.8125 202.25 58.2917 202.25 62V126Z" fill="#DAECF6"/>
<path d="M306.125 81.5625C306.125 85.8125 305.562 89.9167 304.438 93.875C303.354 97.7917 301.812 101.479 299.812 104.938C297.812 108.354 295.396 111.479 292.562 114.312C289.729 117.146 286.604 119.583 283.188 121.625C279.771 123.625 276.083 125.167 272.125 126.25C268.167 127.375 264.062 127.938 259.812 127.938C255.562 127.938 251.458 127.375 247.5 126.25C243.583 125.167 239.896 123.625 236.438 121.625C233.021 119.583 229.896 117.146 227.062 114.312C224.229 111.479 221.792 108.354 219.75 104.938C217.75 101.479 216.188 97.7917 215.062 93.875C213.979 89.9167 213.438 85.8125 213.438 81.5625C213.438 77.3125 213.979 73.2083 215.062 69.25C216.188 65.2917 217.75 61.6042 219.75 58.1875C221.792 54.7708 224.229 51.6458 227.062 48.8125C229.896 45.9792 233.021 43.5625 236.438 41.5625C239.896 39.5625 243.583 38.0208 247.5 36.9375C251.458 35.8125 255.562 35.25 259.812 35.25C264.062 35.25 268.167 35.8125 272.125 36.9375C276.083 38.0208 279.771 39.5625 283.188 41.5625C286.604 43.5625 289.729 45.9792 292.562 48.8125C295.396 51.6458 297.812 54.7708 299.812 58.1875C301.812 61.6042 303.354 65.2917 304.438 69.25C305.562 73.2083 306.125 77.3125 306.125 81.5625ZM288.312 81.5625C288.312 77.6458 287.562 73.9583 286.062 70.5C284.562 67 282.521 63.9792 279.938 61.4375C277.396 58.8542 274.375 56.8125 270.875 55.3125C267.417 53.8125 263.729 53.0625 259.812 53.0625C255.854 53.0625 252.146 53.8125 248.688 55.3125C245.229 56.8125 242.208 58.8542 239.625 61.4375C237.042 63.9792 235 67 233.5 70.5C232 73.9583 231.25 77.6458 231.25 81.5625C231.25 85.4792 232 89.1667 233.5 92.625C235 96.0417 237.042 99.0417 239.625 101.625C242.208 104.208 245.229 106.25 248.688 107.75C252.146 109.25 255.854 110 259.812 110C263.729 110 267.417 109.25 270.875 107.75C274.375 106.25 277.396 104.208 279.938 101.625C282.521 99.0417 284.562 96.0417 286.062 92.625C287.562 89.1667 288.312 85.4792 288.312 81.5625Z" fill="white"/>
<path d="M364.625 116.938C360.458 120.479 355.812 123.208 350.688 125.125C345.562 127 340.229 127.938 334.688 127.938C330.438 127.938 326.333 127.375 322.375 126.25C318.458 125.167 314.792 123.625 311.375 121.625C307.958 119.583 304.833 117.167 302 114.375C299.167 111.542 296.75 108.417 294.75 105C292.75 101.542 291.188 97.8333 290.062 93.875C288.979 89.9167 288.438 85.8125 288.438 81.5625C288.438 77.3125 288.979 73.2292 290.062 69.3125C291.188 65.3958 292.75 61.7292 294.75 58.3125C296.75 54.8542 299.167 51.7292 302 48.9375C304.833 46.1042 307.958 43.6875 311.375 41.6875C314.792 39.6875 318.458 38.1458 322.375 37.0625C326.333 35.9375 330.438 35.375 334.688 35.375C340.229 35.375 345.562 36.3333 350.688 38.25C355.812 40.125 360.458 42.8333 364.625 46.375L355.25 62C352.542 59.25 349.417 57.1042 345.875 55.5625C342.333 53.9792 338.604 53.1875 334.688 53.1875C330.771 53.1875 327.083 53.9375 323.625 55.4375C320.208 56.9375 317.208 58.9792 314.625 61.5625C312.042 64.1042 310 67.1042 308.5 70.5625C307 73.9792 306.25 77.6458 306.25 81.5625C306.25 85.5208 307 89.2292 308.5 92.6875C310 96.1458 312.042 99.1667 314.625 101.75C317.208 104.333 320.208 106.375 323.625 107.875C327.083 109.375 330.771 110.125 334.688 110.125C336.938 110.125 339.125 109.854 341.25 109.312C343.375 108.771 345.396 108.021 347.312 107.062V81.5625H364.625V116.938Z" fill="white"/>
<path d="M441.438 126H437.312L430.688 116.812C429.062 118.271 427.333 119.646 425.5 120.938C423.708 122.188 421.812 123.292 419.812 124.25C417.812 125.167 415.75 125.896 413.625 126.438C411.542 126.979 409.417 127.25 407.25 127.25C402.542 127.25 398.104 126.458 393.938 124.875C389.812 123.292 386.188 121 383.062 118C379.979 114.958 377.542 111.25 375.75 106.875C373.958 102.5 373.062 97.5208 373.062 91.9375C373.062 86.7292 373.958 81.9583 375.75 77.625C377.542 73.25 379.979 69.5 383.062 66.375C386.188 63.25 389.812 60.8333 393.938 59.125C398.104 57.375 402.542 56.5 407.25 56.5C409.417 56.5 411.562 56.7708 413.688 57.3125C415.812 57.8542 417.875 58.6042 419.875 59.5625C421.875 60.5208 423.771 61.6458 425.562 62.9375C427.396 64.2292 429.104 65.625 430.688 67.125L437.312 59.1875H441.438V126ZM424.25 91.9375C424.25 89.6042 423.792 87.3542 422.875 85.1875C422 82.9792 420.792 81.0417 419.25 79.375C417.708 77.6667 415.896 76.3125 413.812 75.3125C411.771 74.2708 409.583 73.75 407.25 73.75C404.917 73.75 402.708 74.1458 400.625 74.9375C398.583 75.7292 396.792 76.8958 395.25 78.4375C393.75 79.9792 392.562 81.8958 391.688 84.1875C390.812 86.4375 390.375 89.0208 390.375 91.9375C390.375 94.8542 390.812 97.4583 391.688 99.75C392.562 102 393.75 103.896 395.25 105.438C396.792 106.979 398.583 108.146 400.625 108.938C402.708 109.729 404.917 110.125 407.25 110.125C409.583 110.125 411.771 109.625 413.812 108.625C415.896 107.583 417.708 106.229 419.25 104.562C420.792 102.854 422 100.917 422.875 98.75C423.792 96.5417 424.25 94.2708 424.25 91.9375ZM539.625 126H522.625V83.5C522.625 82.3333 522.396 81.2292 521.938 80.1875C521.521 79.1458 520.917 78.2292 520.125 77.4375C519.333 76.6458 518.417 76.0417 517.375 75.625C516.333 75.1667 515.229 74.9375 514.062 74.9375C512.896 74.9375 511.792 75.1667 510.75 75.625C509.75 76.0417 508.854 76.6458 508.062 77.4375C507.312 78.2292 506.708 79.1458 506.25 80.1875C505.833 81.2292 505.625 82.3333 505.625 83.5V126H488.562V83.5C488.562 82.3333 488.333 81.2292 487.875 80.1875C487.458 79.1458 486.854 78.2292 486.062 77.4375C485.271 76.6458 484.354 76.0417 483.312 75.625C482.271 75.1667 481.167 74.9375 480 74.9375C478.833 74.9375 477.729 75.1667 476.688 75.625C475.688 76.0417 474.792 76.6458 474 77.4375C473.25 78.2292 472.646 79.1458 472.188 80.1875C471.771 81.2292 471.562 82.3333 471.562 83.5V126H454.5V59.0625H458.625L463.25 64.1875C465.625 62.1875 468.229 60.6458 471.062 59.5625C473.938 58.4375 476.917 57.875 480 57.875C483.125 57.875 486.167 58.4583 489.125 59.625C492.125 60.7917 494.75 62.8125 497 65.6875C498.042 64.2708 499.229 63.0625 500.562 62.0625C501.896 61.0625 503.292 60.25 504.75 59.625C506.25 59 507.792 58.5625 509.375 58.3125C510.958 58.0208 512.521 57.875 514.062 57.875C517.604 57.875 520.917 58.5417 524 59.875C527.125 61.2083 529.833 63.0417 532.125 65.375C534.458 67.6667 536.292 70.375 537.625 73.5C538.958 76.625 539.625 79.9583 539.625 83.5V126ZM578.75 109.625C579.417 109.833 580.083 109.979 580.75 110.062C581.417 110.104 582.083 110.125 582.75 110.125C584.417 110.125 586.021 109.896 587.562 109.438C589.104 108.979 590.542 108.333 591.875 107.5C593.25 106.625 594.458 105.583 595.5 104.375C596.583 103.125 597.458 101.75 598.125 100.25L610.625 112.812C609.042 115.062 607.208 117.083 605.125 118.875C603.083 120.667 600.854 122.188 598.438 123.438C596.062 124.688 593.542 125.625 590.875 126.25C588.25 126.917 585.542 127.25 582.75 127.25C578.042 127.25 573.604 126.375 569.438 124.625C565.312 122.875 561.688 120.438 558.562 117.312C555.479 114.188 553.042 110.479 551.25 106.188C549.458 101.854 548.562 97.1042 548.562 91.9375C548.562 86.6458 549.458 81.8125 551.25 77.4375C553.042 73.0625 555.479 69.3333 558.562 66.25C561.688 63.1667 565.312 60.7708 569.438 59.0625C573.604 57.3542 578.042 56.5 582.75 56.5C585.542 56.5 588.271 56.8333 590.938 57.5C593.604 58.1667 596.125 59.125 598.5 60.375C600.917 61.625 603.167 63.1667 605.25 65C607.333 66.7917 609.167 68.8125 610.75 71.0625L578.75 109.625ZM587.5 74.4375C586.708 74.1458 585.917 73.9583 585.125 73.875C584.375 73.7917 583.583 73.75 582.75 73.75C580.417 73.75 578.208 74.1875 576.125 75.0625C574.083 75.8958 572.292 77.1042 570.75 78.6875C569.25 80.2708 568.062 82.1875 567.188 84.4375C566.312 86.6458 565.875 89.1458 565.875 91.9375C565.875 92.5625 565.896 93.2708 565.938 94.0625C566.021 94.8542 566.125 95.6667 566.25 96.5C566.417 97.2917 566.604 98.0625 566.812 98.8125C567.021 99.5625 567.292 100.229 567.625 100.812L587.5 74.4375ZM656.125 126H617.125V109H656.125C657.292 109 658.292 108.583 659.125 107.75C659.958 106.917 660.375 105.917 660.375 104.75C660.375 103.542 659.958 102.75 659.125 102.375C658.292 102 657.292 101.812 656.125 101.812H638.375C635.417 101.812 632.646 101.25 630.062 100.125C627.479 99 625.229 97.4792 623.312 95.5625C621.396 93.6042 619.875 91.3333 618.75 88.75C617.667 86.1667 617.125 83.3958 617.125 80.4375C617.125 77.4792 617.667 74.7083 618.75 72.125C619.875 69.5417 621.396 67.2917 623.312 65.375C625.229 63.4583 627.479 61.9583 630.062 60.875C632.646 59.75 635.417 59.1875 638.375 59.1875H672.938V76.1875H638.375C637.208 76.1875 636.208 76.6042 635.375 77.4375C634.542 78.2708 634.125 79.2708 634.125 80.4375C634.125 81.6458 634.542 82.6875 635.375 83.5625C636.208 84.3958 637.208 84.8125 638.375 84.8125H656.125C659.042 84.8125 661.792 85.3125 664.375 86.3125C666.958 87.2708 669.208 88.625 671.125 90.375C673.042 92.125 674.562 94.2292 675.688 96.6875C676.812 99.1458 677.375 101.833 677.375 104.75C677.375 107.708 676.812 110.479 675.688 113.062C674.562 115.604 673.042 117.854 671.125 119.812C669.208 121.729 666.958 123.25 664.375 124.375C661.792 125.458 659.042 126 656.125 126Z" fill="#DAECF6"/>
</svg>
